<?xml version="1.0" encoding="UTF-8"?><svg id="Layer_1" xmlns="http://www.w3.org/2000/svg" xmlns:xlink="http://www.w3.org/1999/xlink" viewBox="0 0 611.71 326.32"><defs><style>.cls-1{fill:url(#linear-gradient);}</style><linearGradient id="linear-gradient" x1="0" y1="163.16" x2="611.71" y2="163.16" gradientUnits="userSpaceOnUse"><stop offset="0" stop-color="#4fd1c5"/><stop offset="1" stop-color="#ff6b6b"/></linearGradient></defs><path class="cls-1" d="M496.12,7.39c-70.22-21.2-141.89,4.47-182.58,65.51l-7.68,11.49v-.02s-52.49,78.38-52.49,78.38h-.26l.27.41-27.88,41.82c-22.87,34.27-58.63,38.23-84.6,30.31-25.85-7.81-53.51-30.88-53.51-72.1s27.66-64.33,53.53-72.14c7.12-2.17,14.98-3.45,23.11-3.45,21.48,0,44.86,8.88,61.47,33.78l14.93,22.36,52.34-78.53C251.3,9.72,182.9-13.06,115.59,7.42,45.39,28.66,0,89.82,0,163.19s45.39,134.48,115.59,155.74c70.2,21.33,141.86-4.41,182.62-65.48l7.65-11.5,52.52-78.79,27.87-41.78c22.85-34.29,58.54-38.25,84.54-30.33,25.89,7.81,53.55,30.89,53.55,72.14s-27.66,64.29-53.55,72.1c-25.79,7.89-61.67,3.99-84.54-30.31l-14.94-22.42-52.49,78.37c31.35,42.11,78.27,65.37,128.4,65.37,16.1,0,32.53-2.39,48.92-7.34,70.2-21.29,115.57-82.41,115.57-155.77S566.34,28.66,496.12,7.39Z"/></svg>